# xmcd
#
# Track frame offsets: 
#        150
#        14513
#        25589
#        40779
#        52679
#        69094
#        79913
#        92734
#        106920
#        115673
#        134050
#        147599
#        164173
#
# Disc length: 2259 seconds
#
# Revision: 0
# Processed by: cddbd v1.5.2PL0 Copyright (c) Steve Scherf et al.
# Submitted via: ExactAudioCopy v0.99pb4
#
DISCID=a908d10d
DTITLE=The Chords Of Faith - Tell Me The Story Of Jesus
DYEAR=2006
DGENRE=Bluegrass Gospel
TTITLE0=Tell Me The Story Of Jesus/I Love To Tell The Story
TTITLE1=Down At The Cross/Glory To His Name
TTITLE2=Victory To Jesus
TTITLE3=Mary! Oh, Mary!
TTITLE4=Where The Roses Never Fade
TTITLE5=Just A Little Talk With Jesus
TTITLE6=Precious Lord Take My Hand
TTITLE7=Where Could I Go
TTITLE8=Jesus Is The Rock
TTITLE9=I Say Love
TTITLE10=Crowning Of The King
TTITLE11=Cleanse Me
TTITLE12=God Be With You
EXTD=
EXTT0=
EXTT1=
EXTT2=
EXTT3=
EXTT4=
EXTT5=
EXTT6=
EXTT7=
EXTT8=
EXTT9=
EXTT10=
EXTT11=
EXTT12=
PLAYORDER=
